{"glyphs":{":":{"x_min":0,"x_max":312,"ha":312,"o":"m 116 0 l 116 88 l 197 88 l 197 0 z m 116 410 l 116 498 l 197 498 l 197 410 z"},"$":{"x_min":0,"x_max":648,"ha":648,"o":"m 351 62 q 441 64 491 99 q 540 133 540 194 q 540 252 502 279 q 463 305 351 317 z m 299 395 l 299 646 q 220 642 174 608 q 129 573 129 518 q 129 464 167 436 q 205 409 299 395 z m 38 220 l 108 220 q 115 146 164 106 q 213 65 299 62 l 299 327 q 177 341 117 387 q 57 433 57 511 q 57 595 122 647 q 187 699 299 704 l 299 782 l 351 782 l 351 704 q 469 698 533 649 q 596 601 603 510 l 536 510 q 528 571 480 606 q 432 641 351 644 l 351 386 q 498 368 554 327 q 610 287 610 203 q 610 110 543 58 q 477 5 351 0 l 351 -89 l 299 -89 l 299 0 q 182 4 114 61 q 45 119 38 220 z"},"?":{"x_min":0,"x_max":586,"ha":586,"o":"m 224 0 l 224 88 l 305 88 l 305 0 z m 224 174 l 224 203 q 224 277 316 349 l 317 349 q 327 357 347 372 q 455 454 455 526 q 455 594 408 634 q 360 674 279 674 q 196 674 147 625 q 98 577 98 495 l 98 493 l 23 493 l 23 506 q 23 615 91 678 q 158 741 276 741 q 394 741 463 683 q 532 624 532 525 q 532 491 524 463 q 516 435 499 412 q 472 374 395 318 q 374 302 363 294 q 330 269 317 246 q 305 224 305 190 q 305 189 304 185 q 303 182 303 180 q 303 179 303 177 q 304 176 305 174 z"},"<":{"x_min":0,"x_max":833,"ha":833,"o":"m 704 501 l 205 298 l 704 96 l 704 43 l 129 278 l 129 318 l 704 554 z"},"'":{"x_min":0,"x_max":144,"ha":144,"o":"m 97 700 l 97 430 l 48 430 l 48 700 z"},"=":{"x_min":0,"x_max":833,"ha":833,"o":"m 709 231 l 709 183 l 124 183 l 124 231 z m 709 413 l 709 365 l 124 365 l 124 413 z"},"a":{"x_min":0,"x_max":648,"ha":648,"o":"m 615 67 l 615 7 q 599 2 585 0 q 570 -3 557 -3 q 522 -3 506 16 q 490 35 486 81 q 442 32 389 9 q 335 -13 259 -13 q 163 -13 110 28 q 58 70 58 146 q 58 181 72 209 q 86 238 114 259 q 136 275 173 286 q 211 296 302 309 q 322 312 356 316 q 486 332 486 391 q 486 435 448 457 q 411 480 339 480 q 248 480 201 449 q 154 418 150 357 l 81 357 q 87 450 149 497 q 211 543 330 543 q 406 543 452 528 q 499 513 526 479 q 542 458 549 432 q 556 405 556 350 l 556 321 l 556 115 q 556 80 562 71 q 569 62 585 62 q 592 62 600 63 q 607 64 615 67 z m 486 287 q 467 276 428 267 q 390 258 303 245 q 188 227 158 206 q 128 186 128 144 q 128 101 165 75 q 202 50 265 50 q 363 50 425 96 q 486 142 486 215 l 486 223 z"},"L":{"x_min":0,"x_max":639,"ha":639,"o":"m 85 0 l 85 722 l 157 722 l 157 68 l 611 68 l 611 0 z"},"3":{"x_min":0,"x_max":648,"ha":648,"o":"m 49 224 l 123 224 q 124 138 176 94 q 227 50 326 50 q 421 50 472 89 q 522 128 522 201 q 522 274 471 305 q 420 337 300 337 l 274 337 l 274 401 l 292 401 q 397 401 445 431 q 494 462 494 528 q 494 593 450 626 q 407 659 320 659 q 239 659 193 613 q 146 566 145 485 l 71 485 q 79 601 144 662 q 208 722 326 722 q 440 722 503 673 q 566 624 566 535 q 566 472 535 430 q 503 388 444 373 q 517 365 556 320 q 596 274 596 201 q 596 97 525 39 q 454 -19 327 -19 q 193 -19 122 44 q 50 106 49 224 z"},";":{"x_min":0,"x_max":312,"ha":312,"o":"m 116 410 l 116 498 l 197 498 l 197 410 z m 116 0 l 116 88 l 197 88 l 197 -29 q 197 -85 179 -113 q 161 -141 116 -156 l 116 -110 q 136 -100 144 -84 q 153 -68 153 -43 l 153 0 z"},"J":{"x_min":0,"x_max":591,"ha":591,"o":"m 46 242 l 118 242 q 118 241 118 239 q 116 218 116 208 q 116 128 156 88 q 195 48 272 48 q 358 48 395 92 q 431 135 431 242 l 431 722 l 503 722 l 503 256 q 503 169 494 131 q 485 92 463 63 q 433 23 386 2 q 339 -19 281 -19 q 165 -19 105 40 q 45 99 45 214 q 45 226 45 231 q 45 237 46 242 z"},"V":{"x_min":0,"x_max":748,"ha":748,"o":"m 328 0 l 5 722 l 84 722 l 374 62 l 664 722 l 743 722 l 419 0 z"},"\"":{"x_min":0,"x_max":278,"ha":278,"o":"m 231 700 l 231 430 l 181 430 l 181 700 z m 97 700 l 97 430 l 48 430 l 48 700 z"},"7":{"x_min":0,"x_max":648,"ha":648,"o":"m 196 0 q 229 176 308 333 q 386 490 511 634 l 56 634 l 56 704 l 574 704 l 574 622 q 450 468 377 314 q 305 160 282 0 z"},"S":{"x_min":0,"x_max":719,"ha":719,"o":"m 58 238 l 131 238 l 131 234 q 131 151 193 102 q 256 52 360 52 q 463 52 523 92 q 584 132 584 200 q 584 252 549 279 q 514 305 404 325 l 250 352 q 164 367 122 412 q 79 457 79 532 q 79 627 153 684 q 228 741 354 741 q 485 741 560 682 q 635 624 638 519 l 566 519 q 559 595 506 635 q 452 675 356 675 q 262 675 208 637 q 153 600 153 536 q 153 485 191 458 q 229 431 333 413 l 470 389 q 569 372 615 327 q 660 283 660 203 q 660 99 583 40 q 505 -19 367 -19 q 223 -19 141 47 q 58 113 58 227 z"},"}":{"x_min":0,"x_max":500,"ha":500,"o":"m 271 540 l 271 422 q 271 347 299 316 q 327 285 394 285 q 397 285 405 286 q 412 286 416 286 l 416 233 q 412 233 405 233 q 397 234 394 234 q 327 234 299 203 q 271 172 271 97 l 271 -22 q 271 -131 237 -167 q 203 -202 107 -202 l 84 -202 l 84 -150 l 103 -150 q 167 -150 189 -126 q 211 -102 211 -27 l 211 91 q 211 174 232 209 q 253 244 307 259 q 253 274 232 309 q 211 344 211 427 l 211 545 q 211 622 189 646 q 167 670 106 670 q 103 670 95 669 q 88 669 84 669 l 84 721 l 107 721 q 203 721 237 685 q 271 649 271 540 z"},"Z":{"x_min":0,"x_max":696,"ha":696,"o":"m 32 0 l 32 71 l 563 655 l 58 655 l 58 722 l 663 722 l 663 655 l 122 71 l 663 71 l 663 0 z"},"x":{"x_min":0,"x_max":566,"ha":566,"o":"m 87 0 l 2 0 l 242 282 l 31 530 l 120 530 l 287 331 l 450 530 l 540 530 l 330 280 l 564 0 l 482 0 l 285 230 z"},")":{"x_min":0,"x_max":306,"ha":306,"o":"m 5 -191 q 89 -68 129 43 q 169 154 169 266 q 169 378 129 488 q 90 599 5 722 l 57 722 q 153 597 199 487 q 244 376 244 266 q 244 156 199 45 q 153 -66 57 -191 z"},"&":{"x_min":0,"x_max":744,"ha":744,"o":"m 297 450 q 359 482 387 512 q 416 543 416 578 q 416 615 388 638 q 360 662 316 662 q 271 662 243 638 q 216 614 216 574 q 216 544 237 512 q 259 479 297 450 z m 678 0 l 581 93 q 528 37 462 9 q 397 -19 319 -19 q 201 -19 127 41 q 53 101 53 195 q 53 263 96 315 q 140 368 237 416 q 193 459 173 496 q 153 533 153 570 q 153 640 198 681 q 243 722 318 722 q 390 722 436 682 q 482 641 482 578 q 482 526 450 485 q 417 444 344 403 l 572 192 q 592 231 604 268 q 616 305 621 341 l 687 341 q 684 292 668 242 q 651 193 622 145 l 768 0 z m 533 137 l 284 370 q 199 329 162 288 q 125 248 125 198 q 125 131 178 87 q 232 43 316 43 q 380 43 433 66 q 486 89 533 137 z"},"_":{"x_min":0,"x_max":500,"ha":500,"o":"m 500 -187 l 500 -236 l 0 -236 l 0 -187 z"},"v":{"x_min":0,"x_max":539,"ha":539,"o":"m 229 0 l -12 530 l 68 530 l 266 71 l 466 530 l 543 530 l 301 0 z"},"O":{"x_min":0,"x_max":859,"ha":859,"o":"m 809 361 q 809 184 708 83 q 606 -19 429 -19 q 252 -19 151 83 q 50 184 50 361 q 50 538 151 640 q 252 741 429 741 q 606 741 708 640 q 809 538 809 361 z m 429 51 q 572 51 654 133 q 735 216 735 361 q 735 506 654 589 q 572 671 429 671 q 286 671 204 589 q 123 506 123 361 q 123 216 204 133 q 286 51 429 51 z"},"(":{"x_min":0,"x_max":306,"ha":306,"o":"m 300 722 q 216 600 177 489 q 137 379 137 266 q 137 153 177 42 q 216 -69 300 -191 l 248 -191 q 152 -66 106 45 q 61 156 61 266 q 61 376 106 487 q 151 597 248 722 z"},"C":{"x_min":0,"x_max":810,"ha":810,"o":"m 691 486 q 670 575 602 623 q 533 671 428 671 q 286 671 205 588 q 123 505 123 361 q 123 220 202 136 q 281 52 414 52 q 523 52 600 111 q 677 170 699 271 l 776 271 q 751 137 654 59 q 558 -19 416 -19 q 250 -19 150 84 q 50 188 50 361 q 50 538 151 640 q 252 741 429 741 q 569 741 658 673 q 747 605 764 486 z"},"W":{"x_min":0,"x_max":1116,"ha":1116,"o":"m 258 0 l 19 722 l 96 722 l 307 64 l 514 722 l 601 722 l 805 64 l 1021 722 l 1096 722 l 852 0 l 757 0 l 556 645 l 352 0 z"},"A":{"x_min":0,"x_max":762,"ha":762,"o":"m 216 293 l 547 293 l 382 662 z m 8 0 l 341 722 l 424 722 l 753 0 l 680 0 l 579 223 l 184 223 l 82 0 z"},"f":{"x_min":0,"x_max":299,"ha":299,"o":"m 104 0 l 104 472 l 14 472 l 14 530 l 104 530 l 104 572 q 104 663 128 693 q 153 723 216 723 q 232 723 252 720 q 271 717 294 711 l 294 650 q 272 655 259 657 q 246 659 235 659 q 199 659 187 646 q 174 632 174 582 l 174 530 l 294 530 l 294 472 l 174 472 l 174 0 z"},"Q":{"x_min":0,"x_max":859,"ha":859,"o":"m 637 28 q 593 4 542 -8 q 491 -19 429 -19 q 252 -19 151 83 q 50 184 50 361 q 50 538 151 640 q 252 741 429 741 q 606 741 708 640 q 809 538 809 361 q 809 269 780 197 q 751 125 692 69 l 800 -17 l 754 -68 z m 577 79 l 490 149 l 538 202 l 641 114 q 688 161 712 222 q 735 283 735 361 q 735 506 654 589 q 572 671 429 671 q 286 671 204 589 q 123 506 123 361 q 123 216 204 133 q 286 51 429 51 q 479 51 517 58 q 554 65 577 79 z"},"w":{"x_min":0,"x_max":859,"ha":859,"o":"m 197 0 l 11 530 l 87 530 l 242 65 l 384 530 l 473 530 l 623 65 l 771 530 l 845 530 l 663 0 l 581 0 l 429 472 l 281 0 z"},"-":{"x_min":0,"x_max":463,"ha":463,"o":"m 55 233 l 55 297 l 408 297 l 408 233 z"},"E":{"x_min":0,"x_max":687,"ha":687,"o":"m 85 0 l 85 722 l 640 722 l 640 655 l 157 655 l 157 402 l 603 402 l 603 334 l 157 334 l 157 68 l 640 68 l 640 0 z"},"s":{"x_min":0,"x_max":567,"ha":567,"o":"m 29 167 l 99 167 q 106 108 153 78 q 199 48 283 48 q 373 48 419 73 q 466 98 466 146 q 466 180 443 198 q 419 217 367 225 l 213 248 q 123 261 83 295 q 43 330 43 393 q 43 465 106 507 q 169 549 279 549 q 390 549 453 503 q 516 458 518 377 l 448 377 q 440 431 396 458 q 351 485 269 485 q 196 485 156 461 q 115 438 115 397 q 115 363 141 344 q 167 326 237 316 l 373 295 q 461 282 500 248 q 538 215 538 153 q 538 69 471 25 q 404 -19 276 -19 q 164 -19 99 29 q 35 78 29 167 z"},">":{"x_min":0,"x_max":833,"ha":833,"o":"m 704 318 l 704 278 l 129 43 l 129 96 l 628 298 l 129 501 l 129 554 z"},"l":{"x_min":0,"x_max":225,"ha":225,"o":"m 78 0 l 78 722 l 147 722 l 147 0 z"},"8":{"x_min":0,"x_max":648,"ha":648,"o":"m 122 202 q 122 129 174 91 q 227 52 324 52 q 421 52 474 91 q 526 129 526 202 q 526 271 472 312 q 418 352 324 352 q 230 352 176 312 q 122 271 122 202 z m 154 535 q 154 477 197 448 q 240 418 324 418 q 408 418 451 448 q 494 477 494 535 q 494 595 451 625 q 409 656 324 656 q 240 656 197 625 q 154 595 154 535 z m 204 384 q 144 406 114 446 q 83 486 83 544 q 83 627 147 675 q 211 722 324 722 q 437 722 501 675 q 565 627 565 544 q 565 486 534 446 q 504 406 444 384 q 521 367 560 320 q 598 272 598 194 q 598 93 526 37 q 455 -19 324 -19 q 193 -19 122 37 q 50 93 50 194 q 50 272 88 320 q 126 367 204 384 z"},"\\":{"x_min":0,"x_max":278,"ha":278,"o":"m 232 -93 l -50 741 l 5 741 l 287 -93 z"},"e":{"x_min":0,"x_max":644,"ha":644,"o":"m 118 308 l 527 308 q 521 387 465 435 q 410 483 324 483 q 237 483 181 435 q 125 387 118 308 z m 586 169 q 565 83 494 32 q 424 -19 324 -19 q 197 -19 119 59 q 41 137 41 265 q 41 392 119 470 q 197 549 324 549 q 452 549 529 472 q 606 395 606 266 l 606 250 l 116 250 q 122 154 176 101 q 230 49 324 49 q 392 49 440 80 q 488 112 508 169 z"},"b":{"x_min":0,"x_max":676,"ha":676,"o":"m 145 267 q 145 170 202 113 q 258 55 354 55 q 450 55 507 113 q 564 170 564 267 q 564 364 507 422 q 450 480 354 480 q 258 480 202 422 q 145 364 145 267 z m 75 0 l 75 722 l 145 722 l 145 441 q 186 495 237 520 q 288 545 355 545 q 480 545 558 468 q 636 392 636 267 q 636 143 558 66 q 480 -11 355 -11 q 286 -11 235 15 q 184 41 145 94 l 145 0 z"},"%":{"x_min":0,"x_max":839,"ha":839,"o":"m 179 -19 l 601 722 l 660 722 l 238 -19 z m 526 173 q 526 103 553 66 q 580 30 632 30 q 685 30 711 66 q 737 102 737 173 q 737 244 711 280 q 685 316 632 316 q 580 316 553 280 q 526 244 526 173 z m 470 173 q 470 267 512 316 q 553 365 632 365 q 711 365 752 316 q 793 267 793 173 q 793 79 752 30 q 711 -19 632 -19 q 553 -19 512 30 q 470 80 470 173 z m 102 531 q 102 460 129 424 q 156 387 208 387 q 260 387 287 423 q 313 459 313 531 q 313 603 287 638 q 260 674 208 674 q 156 674 129 638 q 102 602 102 531 z m 46 531 q 46 625 87 673 q 129 722 208 722 q 287 722 328 674 q 369 625 369 531 q 369 437 328 388 q 287 339 208 339 q 129 339 88 388 q 46 438 46 531 z"},"m":{"x_min":0,"x_max":1054,"ha":1054,"o":"m 73 0 l 73 530 l 140 530 l 140 432 q 179 486 235 513 q 291 541 362 541 q 438 541 487 514 q 535 487 558 432 q 597 486 653 513 q 709 541 780 541 q 885 541 934 493 q 984 445 984 343 l 984 0 l 914 0 l 914 298 q 914 399 881 439 q 848 478 768 478 q 677 478 619 429 q 560 379 560 302 l 560 0 l 497 0 l 497 298 q 497 399 464 438 q 431 478 350 478 q 259 478 201 429 q 142 379 142 302 l 142 0 z"},"#":{"x_min":0,"x_max":769,"ha":769,"o":"m 476 422 l 346 422 l 299 287 l 429 287 z m 448 710 l 366 474 l 495 474 l 579 710 l 641 710 l 558 474 l 712 474 l 694 422 l 539 422 l 491 287 l 657 287 l 639 234 l 473 234 l 390 0 l 327 0 l 411 234 l 280 234 l 196 0 l 134 0 l 217 234 l 57 234 l 76 287 l 235 287 l 284 422 l 112 422 l 129 474 l 302 474 l 386 710 z"},",":{"x_min":0,"x_max":324,"ha":324,"o":"m 122 0 l 122 88 l 203 88 l 203 -29 q 203 -85 185 -113 q 167 -141 122 -156 l 122 -110 q 141 -100 150 -85 q 158 -69 158 -43 l 158 0 z"},"n":{"x_min":0,"x_max":637,"ha":637,"o":"m 73 0 l 73 530 l 140 530 l 140 432 q 179 486 235 513 q 291 541 362 541 q 467 541 516 493 q 566 445 566 343 l 566 0 l 497 0 l 497 298 q 497 399 464 438 q 431 478 350 478 q 259 478 201 429 q 142 379 142 302 l 142 0 z"},"h":{"x_min":0,"x_max":637,"ha":637,"o":"m 73 0 l 73 722 l 140 722 l 140 432 q 179 486 235 513 q 291 541 362 541 q 467 541 516 493 q 566 445 566 343 l 566 0 l 497 0 l 497 298 q 497 399 464 438 q 431 478 350 478 q 259 478 201 429 q 142 379 142 302 l 142 0 z"},"z":{"x_min":0,"x_max":562,"ha":562,"o":"m 32 0 l 32 69 l 432 465 l 51 465 l 51 530 l 516 530 l 516 463 l 117 67 l 530 67 l 530 0 z"},"B":{"x_min":0,"x_max":741,"ha":741,"o":"m 85 0 l 85 722 l 436 722 q 548 722 605 676 q 663 630 663 540 q 663 482 635 443 q 607 403 550 381 q 618 368 654 324 q 690 280 690 210 q 690 103 628 51 q 565 0 435 0 z m 158 412 l 414 412 q 509 412 549 440 q 589 469 589 534 q 589 599 550 627 q 511 656 421 656 l 158 656 z m 158 72 l 428 72 q 527 72 571 103 q 615 134 615 203 q 615 278 574 313 q 533 347 444 347 l 158 347 z"},"K":{"x_min":0,"x_max":713,"ha":713,"o":"m 85 0 l 85 722 l 157 722 l 157 327 l 604 722 l 704 722 l 364 420 l 704 0 l 612 0 l 310 373 l 157 239 l 157 0 z"},"R":{"x_min":0,"x_max":757,"ha":757,"o":"m 414 655 l 157 655 l 157 378 l 423 378 q 526 378 572 411 q 617 443 617 517 q 617 592 572 623 q 526 655 414 655 z m 85 0 l 85 722 l 431 722 q 560 722 625 673 q 690 625 690 528 q 690 456 660 413 q 630 370 565 348 q 620 339 644 312 q 667 284 676 211 q 679 183 683 134 q 689 30 711 0 l 627 0 q 613 42 609 116 q 604 190 602 211 q 595 265 563 287 q 531 310 461 310 l 157 310 l 157 0 z"},"T":{"x_min":0,"x_max":634,"ha":634,"o":"m 281 0 l 281 656 l 2 656 l 2 722 l 632 722 l 632 656 l 353 656 l 353 0 z"},"P":{"x_min":0,"x_max":687,"ha":687,"o":"m 157 366 l 366 366 q 481 366 525 398 q 569 431 569 510 q 569 590 525 622 q 480 655 366 655 l 157 655 z m 85 0 l 85 722 l 379 722 q 514 722 580 670 q 645 617 645 509 q 645 401 580 348 q 514 296 379 296 l 157 296 l 157 0 z"},"|":{"x_min":0,"x_max":500,"ha":500,"o":"m 277 764 l 277 -236 l 224 -236 l 224 764 z"},"t":{"x_min":0,"x_max":299,"ha":299,"o":"m 174 141 q 174 82 187 69 q 200 55 237 55 q 249 55 262 57 q 275 59 293 63 l 293 3 q 269 -3 247 -6 q 226 -9 207 -9 q 151 -9 128 23 q 104 54 104 132 l 104 472 l 14 472 l 14 530 l 104 530 l 104 685 l 174 685 l 174 530 l 294 530 l 294 472 l 174 472 z"},"M":{"x_min":0,"x_max":1007,"ha":1007,"o":"m 86 0 l 86 722 l 201 722 l 506 67 l 815 722 l 921 722 l 921 0 l 850 0 l 853 660 l 547 0 l 464 0 l 150 660 l 157 0 z"},"g":{"x_min":0,"x_max":676,"ha":676,"o":"m 601 40 q 601 -30 587 -66 q 573 -102 539 -129 q 501 -160 448 -175 q 394 -190 324 -190 q 216 -190 152 -148 q 88 -107 81 -33 l 153 -33 q 161 -81 203 -104 q 245 -128 322 -128 q 435 -128 484 -91 q 532 -54 532 33 l 532 92 q 489 38 439 12 q 388 -13 321 -13 q 196 -13 118 64 q 41 141 41 265 q 41 390 118 466 q 196 543 321 543 q 387 543 439 517 q 491 491 532 438 l 532 530 l 601 530 z m 532 265 q 532 362 475 419 q 418 477 322 477 q 227 477 169 419 q 112 361 112 265 q 112 168 169 111 q 227 53 322 53 q 418 53 475 111 q 532 168 532 265 z"},"j":{"x_min":0,"x_max":225,"ha":225,"o":"m 86 640 l 86 722 l 156 722 l 156 640 z m 156 -59 q 156 -132 129 -161 q 103 -190 38 -190 q 18 -190 1 -188 q -16 -187 -32 -183 l -32 -122 q -19 -124 -6 -125 q 7 -126 22 -126 q 59 -126 73 -112 q 86 -97 86 -45 l 86 530 l 156 530 z"},"i":{"x_min":0,"x_max":225,"ha":225,"o":"m 78 640 l 78 722 l 147 722 l 147 640 z m 78 0 l 78 530 l 147 530 l 147 0 z"},"y":{"x_min":0,"x_max":539,"ha":539,"o":"m 270 -64 q 233 -144 197 -167 q 161 -191 97 -191 q 85 -191 71 -188 q 56 -186 37 -181 l 37 -115 q 59 -120 76 -122 q 93 -124 105 -124 q 145 -124 171 -99 q 197 -74 230 2 l -12 530 l 68 530 l 266 71 l 466 530 l 543 530 z"},"@":{"x_min":0,"x_max":1000,"ha":1000,"o":"m 634 408 l 663 469 l 709 469 l 641 195 q 636 173 635 164 q 633 155 633 150 q 633 129 647 117 q 661 105 685 105 q 710 105 737 115 q 764 125 788 145 q 835 183 862 245 q 888 307 888 383 q 888 507 792 586 q 695 666 543 666 q 458 666 387 642 q 316 618 259 569 q 187 507 150 427 q 114 347 114 250 q 114 165 143 101 q 172 37 233 -12 q 283 -52 352 -75 q 421 -97 499 -97 q 583 -97 662 -73 q 742 -49 809 -3 l 828 -30 q 756 -84 676 -111 q 596 -138 509 -138 q 416 -138 339 -115 q 263 -93 205 -48 q 129 10 93 86 q 57 162 57 262 q 57 362 99 448 q 141 535 222 602 q 287 655 368 683 q 449 710 544 710 q 623 710 694 688 q 766 667 816 628 q 879 580 911 517 q 943 454 943 380 q 943 296 913 229 q 882 161 824 115 q 790 89 751 75 q 713 61 673 61 q 625 61 602 79 q 579 98 579 135 q 579 137 580 142 q 580 146 580 149 q 555 106 518 84 q 481 61 436 61 q 361 61 322 102 q 283 143 283 221 q 283 333 349 411 q 415 488 510 488 q 556 488 587 468 q 618 448 634 408 z m 591 229 l 621 350 q 612 396 584 421 q 556 447 516 447 q 441 447 392 382 q 343 316 343 217 q 343 163 370 132 q 396 102 444 102 q 496 102 536 137 q 577 172 591 229 z"},".":{"x_min":0,"x_max":324,"ha":324,"o":"m 122 0 l 122 88 l 203 88 l 203 0 z"},"p":{"x_min":0,"x_max":676,"ha":676,"o":"m 145 265 q 145 168 202 111 q 258 53 354 53 q 450 53 507 111 q 564 168 564 265 q 564 361 507 419 q 450 477 354 477 q 258 477 202 420 q 145 362 145 265 z m 75 -190 l 75 530 l 145 530 l 145 437 q 185 491 236 517 q 287 542 355 542 q 481 542 559 466 q 636 389 636 265 q 636 141 558 64 q 480 -13 355 -13 q 288 -13 237 12 q 186 38 145 91 l 145 -190 z"},"X":{"x_min":0,"x_max":694,"ha":694,"o":"m 7 0 l 303 371 l 28 722 l 120 722 l 351 420 l 583 722 l 673 722 l 392 372 l 687 0 l 593 0 l 348 322 l 101 0 z"},"*":{"x_min":0,"x_max":500,"ha":500,"o":"m 171 418 l 129 448 l 209 557 l 80 599 l 96 647 l 225 606 l 225 741 l 275 741 l 275 606 l 404 647 l 420 599 l 291 557 l 371 448 l 329 418 l 250 527 z"},"Y":{"x_min":0,"x_max":719,"ha":719,"o":"m 323 0 l 323 312 l 12 722 l 104 722 l 359 370 l 617 722 l 706 722 l 395 312 l 395 0 z"},"c":{"x_min":0,"x_max":611,"ha":611,"o":"m 513 193 l 584 193 q 573 99 500 40 q 428 -19 324 -19 q 197 -19 119 60 q 41 138 41 265 q 41 392 119 470 q 197 549 324 549 q 424 549 495 495 q 565 441 579 355 l 507 355 q 488 417 440 450 q 392 483 322 483 q 228 483 170 423 q 112 363 112 265 q 112 166 169 107 q 227 49 324 49 q 396 49 448 88 q 500 127 513 193 z"},"!":{"x_min":0,"x_max":312,"ha":312,"o":"m 134 169 l 116 458 l 116 722 l 197 722 l 197 458 l 179 169 z m 116 0 l 116 88 l 197 88 l 197 0 z"},"/":{"x_min":0,"x_max":278,"ha":278,"o":"m 46 -93 l -9 -93 l 273 741 l 328 741 z"},"[":{"x_min":0,"x_max":306,"ha":306,"o":"m 74 -190 l 74 722 l 278 722 l 278 662 l 139 662 l 139 -130 l 278 -130 l 278 -190 z"},"6":{"x_min":0,"x_max":648,"ha":648,"o":"m 136 226 q 136 146 189 98 q 242 51 333 51 q 427 51 482 98 q 536 146 536 228 q 536 309 486 354 q 436 400 346 400 q 248 400 192 354 q 136 307 136 226 z m 124 352 q 158 408 216 437 q 274 466 353 466 q 470 466 538 401 q 607 336 607 227 q 607 114 532 47 q 457 -19 329 -19 q 186 -19 118 70 q 50 159 50 347 q 50 537 122 629 q 194 722 341 722 q 445 722 512 672 q 579 622 585 540 l 514 540 q 503 597 459 626 q 414 656 338 656 q 229 656 177 586 q 124 516 124 372 z"},"r":{"x_min":0,"x_max":372,"ha":372,"o":"m 145 0 l 75 0 l 75 530 l 145 530 l 145 442 q 168 492 210 521 q 252 549 304 549 q 321 549 339 545 q 356 542 374 534 l 374 467 q 356 472 341 475 q 326 477 312 477 q 250 477 208 444 q 167 410 145 343 z"},"2":{"x_min":0,"x_max":648,"ha":648,"o":"m 49 0 l 49 4 q 49 57 67 100 q 84 144 122 184 q 141 204 183 231 q 225 258 322 313 q 338 322 367 338 q 444 380 462 398 q 488 423 499 448 q 510 472 510 508 q 510 577 462 616 q 415 656 330 656 q 232 656 180 608 q 128 560 128 469 l 59 469 l 59 473 q 59 589 131 656 q 203 723 328 723 q 445 723 514 664 q 582 605 582 506 q 582 436 544 387 q 507 338 370 262 q 220 179 177 142 q 133 105 129 70 l 576 70 l 576 0 z"},"{":{"x_min":0,"x_max":500,"ha":500,"o":"m 417 669 l 399 669 q 335 669 312 645 q 290 621 290 545 l 290 427 q 290 345 269 310 q 248 274 194 259 q 248 244 269 208 q 290 173 290 91 l 290 -27 q 290 -103 312 -127 q 334 -151 395 -151 q 398 -151 406 -150 q 413 -150 417 -150 l 417 -202 l 394 -202 q 298 -202 264 -167 q 230 -131 230 -22 l 230 97 q 230 172 202 203 q 174 234 107 234 q 104 234 96 233 q 89 233 85 233 l 85 286 q 89 286 96 286 q 104 285 107 285 q 174 285 202 316 q 230 347 230 422 l 230 540 q 230 649 264 685 q 298 721 394 721 l 417 721 z"},"9":{"x_min":0,"x_max":648,"ha":648,"o":"m 134 164 q 145 106 189 77 q 234 47 310 47 q 418 47 471 117 q 524 188 524 332 l 524 352 q 490 296 432 267 q 375 238 295 238 q 178 238 109 303 q 40 368 40 477 q 40 590 115 656 q 190 722 319 722 q 462 722 530 633 q 598 544 598 357 q 598 167 526 74 q 454 -19 307 -19 q 203 -19 135 31 q 68 82 62 164 z m 112 476 q 112 395 162 349 q 212 304 303 304 q 402 304 457 351 q 511 398 511 483 q 511 560 458 606 q 404 653 315 653 q 221 653 166 605 q 112 558 112 476 z"}," ":{"x_min":0,"x_max":324,"ha":324,"o":""},"I":{"x_min":0,"x_max":252,"ha":252,"o":"m 90 0 l 90 722 l 162 722 l 162 0 z"},"H":{"x_min":0,"x_max":785,"ha":785,"o":"m 85 0 l 85 722 l 157 722 l 157 421 l 627 421 l 627 722 l 699 722 l 699 0 l 627 0 l 627 352 l 157 352 l 157 0 z"},"4":{"x_min":0,"x_max":648,"ha":648,"o":"m 411 248 l 411 622 l 110 248 z m 411 0 l 411 183 l 40 183 l 40 254 l 414 719 l 481 719 l 481 248 l 604 248 l 604 183 l 481 183 l 481 0 z"},"~":{"x_min":0,"x_max":833,"ha":833,"o":"m 747 311 q 697 276 650 259 q 604 241 558 241 q 510 241 431 269 q 421 272 417 274 l 409 277 q 323 308 276 308 q 235 308 190 290 q 146 271 87 230 l 87 285 q 139 321 186 338 q 232 356 276 356 q 327 356 409 326 q 414 324 417 323 q 422 321 433 317 q 514 288 558 288 q 600 288 645 307 q 689 325 747 366 z"},"D":{"x_min":0,"x_max":810,"ha":810,"o":"m 348 722 q 471 722 535 707 q 599 692 646 656 q 704 611 732 538 q 760 465 760 361 q 760 256 731 184 q 703 111 644 65 q 599 30 535 15 q 471 0 348 0 l 85 0 l 85 722 z m 332 657 l 157 657 l 157 69 l 348 69 q 443 69 495 80 q 548 90 585 115 q 637 149 661 210 q 686 271 686 366 q 686 457 661 517 q 636 578 585 612 q 548 636 494 647 q 440 657 332 657 z"},"^":{"x_min":0,"x_max":1000,"ha":1000,"o":"m 534 712 l 793 440 l 723 440 l 500 662 l 276 440 l 206 440 l 466 712 z"},"0":{"x_min":0,"x_max":648,"ha":648,"o":"m 123 352 q 123 201 173 126 q 224 51 324 51 q 424 51 475 126 q 525 201 525 352 q 525 503 475 578 q 424 653 324 653 q 224 653 173 578 q 123 503 123 352 z m 51 352 q 51 532 121 627 q 191 722 324 722 q 457 722 527 627 q 597 532 597 352 q 597 172 527 76 q 456 -19 324 -19 q 192 -19 121 76 q 51 172 51 352 z"},"F":{"x_min":0,"x_max":652,"ha":652,"o":"m 85 0 l 85 722 l 619 722 l 619 654 l 157 654 l 157 405 l 569 405 l 569 334 l 157 334 l 157 0 z"},"`":{"x_min":0,"x_max":500,"ha":500,"o":"m 249 603 l 131 751 l 222 751 l 308 603 z"},"k":{"x_min":0,"x_max":590,"ha":590,"o":"m 75 0 l 75 722 l 145 722 l 145 283 l 450 530 l 553 530 l 312 335 l 593 0 l 500 0 l 255 291 l 145 201 l 145 0 z"},"u":{"x_min":0,"x_max":637,"ha":637,"o":"m 566 530 l 566 0 l 499 0 l 499 98 q 460 44 404 17 q 348 -11 277 -11 q 172 -11 123 37 q 73 85 73 187 l 73 530 l 142 530 l 142 232 q 142 131 175 92 q 208 52 289 52 q 380 52 438 101 q 497 151 497 228 l 497 530 z"},"]":{"x_min":0,"x_max":306,"ha":306,"o":"m 231 722 l 231 -190 l 27 -190 l 27 -130 l 166 -130 l 166 662 l 27 662 l 27 722 z"},"U":{"x_min":0,"x_max":801,"ha":801,"o":"m 86 722 l 159 722 l 159 279 q 159 161 217 106 q 275 51 400 51 q 525 51 583 106 q 642 161 642 279 l 642 722 l 715 722 l 715 260 q 715 125 634 53 q 552 -19 400 -19 q 246 -19 166 53 q 86 125 86 263 z"},"o":{"x_min":0,"x_max":648,"ha":648,"o":"m 112 265 q 112 166 169 107 q 227 49 324 49 q 421 49 479 108 q 536 167 536 265 q 536 364 479 422 q 421 481 324 481 q 227 481 169 422 q 112 364 112 265 z m 41 265 q 41 392 119 470 q 197 549 324 549 q 451 549 529 470 q 608 392 608 265 q 608 138 529 60 q 451 -19 324 -19 q 197 -19 119 60 q 41 138 41 265 z"},"N":{"x_min":0,"x_max":838,"ha":838,"o":"m 85 0 l 85 722 l 177 722 l 682 74 l 682 722 l 752 722 l 752 0 l 656 0 l 155 648 l 155 0 z"},"+":{"x_min":0,"x_max":833,"ha":833,"o":"m 441 596 l 441 322 l 709 322 l 709 274 l 441 274 l 441 0 l 393 0 l 393 274 l 124 274 l 124 322 l 393 322 l 393 596 z"},"G":{"x_min":0,"x_max":831,"ha":831,"o":"m 699 131 q 662 58 590 20 q 518 -19 419 -19 q 251 -19 150 84 q 50 187 50 361 q 50 538 151 640 q 252 741 429 741 q 565 741 654 673 q 742 604 753 492 l 677 492 q 660 579 595 625 q 531 670 425 670 q 285 670 204 587 q 123 505 123 361 q 123 219 204 135 q 284 51 420 51 q 534 51 613 117 q 692 183 692 275 l 692 311 l 465 311 l 465 374 l 765 374 l 765 0 l 707 0 z"},"q":{"x_min":0,"x_max":676,"ha":676,"o":"m 112 265 q 112 168 169 111 q 227 53 322 53 q 418 53 475 111 q 532 168 532 265 q 532 362 475 419 q 418 477 322 477 q 227 477 169 419 q 112 361 112 265 z m 532 91 q 490 38 439 12 q 388 -13 321 -13 q 196 -13 118 64 q 41 141 41 265 q 41 389 118 466 q 195 542 321 542 q 390 542 441 517 q 492 491 532 437 l 532 530 l 601 530 l 601 -190 l 532 -190 z"},"d":{"x_min":0,"x_max":676,"ha":676,"o":"m 532 267 q 532 364 475 422 q 417 480 322 480 q 227 480 169 422 q 112 364 112 267 q 112 170 169 113 q 227 55 322 55 q 418 55 475 113 q 532 170 532 267 z m 601 722 l 601 0 l 532 0 l 532 94 q 493 41 441 15 q 390 -11 321 -11 q 196 -11 118 66 q 41 143 41 267 q 41 392 118 468 q 196 545 321 545 q 388 545 439 520 q 490 495 532 441 l 532 722 z"},"1":{"x_min":0,"x_max":648,"ha":648,"o":"m 316 0 l 316 528 l 103 528 l 103 588 l 174 588 q 258 588 292 618 q 327 649 328 722 l 386 722 l 386 0 z"},"5":{"x_min":0,"x_max":648,"ha":648,"o":"m 49 183 l 122 183 q 133 117 182 83 q 231 50 317 50 q 412 50 469 98 q 525 147 525 228 q 525 312 473 356 q 421 400 322 400 q 247 400 198 376 q 150 353 139 311 l 71 311 l 136 704 l 548 704 l 548 634 l 190 634 l 151 408 q 188 438 235 453 q 282 468 338 468 q 457 468 527 404 q 597 341 597 232 q 597 116 521 48 q 445 -19 313 -19 q 200 -19 133 32 q 66 83 49 183 z"}}}
